<?xml version="1.0" encoding="utf-8"?>
<!-- Generator: Adobe Illustrator 22.0.1, SVG Export Plug-In . SVG Version: 6.00 Build 0)  -->
<svg version="1.1" id="Layer_1" xmlns="http://www.w3.org/2000/svg" xmlns:xlink="http://www.w3.org/1999/xlink" x="0px" y="0px"
	 viewBox="0 0 300.6 68.8" style="enable-background:new 0 0 300.6 68.8;" xml:space="preserve">
<style type="text/css">
	.st0{fill:#020202;}
</style>
<path class="st0" d="M6.9,47.8C4,44.7,2.6,40.4,2.6,35c0-5.4,1.4-9.7,4.3-12.8c2.9-3.2,6.8-4.8,11.6-4.8c4.2,0,7.7,1.1,10.4,3.2
	c2.7,2.2,4.3,5.2,5,9.2H25c-1-3.6-3.1-5.3-6.4-5.3c-2.3,0-4.1,0.9-5.4,2.7c-1.3,1.8-1.9,4.4-1.9,7.8c0,3.3,0.6,5.9,1.9,7.8
	c1.3,1.8,3.1,2.7,5.4,2.7c3.2,0,5.3-1.8,6.4-5.5h8.9c-0.7,3.9-2.4,7-5.1,9.2c-2.7,2.2-6.1,3.3-10.3,3.3C13.7,52.6,9.8,51,6.9,47.8"
	/>
<path class="st0" d="M52.5,52.6c-5,0-9.1-1.7-12.2-5c-3.2-3.3-4.8-7.5-4.8-12.5c0-5,1.6-9.2,4.8-12.6c3.2-3.3,7.2-5,12.2-5
	c5,0,9,1.7,12.2,5c3.2,3.4,4.8,7.6,4.8,12.6c0,5.1-1.6,9.2-4.8,12.5C61.6,50.9,57.6,52.6,52.5,52.6 M52.5,45.5c2.5,0,4.5-0.9,6-2.8
	c1.5-1.8,2.2-4.4,2.2-7.7c0-3.3-0.7-5.8-2.2-7.7c-1.5-1.9-3.5-2.8-6-2.8c-2.5,0-4.5,0.9-6,2.8c-1.5,1.9-2.3,4.4-2.3,7.7
	c0,3.2,0.8,5.8,2.3,7.7C48.1,44.5,50.1,45.5,52.5,45.5"/>
<rect x="72.2" y="5.7" class="st0" width="9.1" height="57.8"/>
<rect x="86" y="5.7" class="st0" width="9.1" height="57.8"/>
<path class="st0" d="M131.6,37.6h-24.1c0.2,2.5,0.9,4.4,2.3,5.9c1.4,1.4,3.2,2.1,5.5,2.1c3.2,0,5.4-1.4,6.4-4.3l9,0.6
	c-1.1,3.5-3,6.2-5.6,8c-2.6,1.8-5.8,2.7-9.6,2.7c-5.4,0-9.6-1.7-12.7-5c-3.1-3.3-4.6-7.6-4.6-12.9c0-5,1.5-9.2,4.4-12.4
	c3-3.3,6.9-4.9,11.9-4.9c5,0,9.1,1.7,12.3,5c3.2,3.4,4.8,7.9,4.8,13.6V37.6z M114.9,24.1c-2.1,0-3.8,0.6-5.1,1.9
	c-1.3,1.4-2.1,3.2-2.3,5.4h14.7c-0.3-2.3-1-4.1-2.3-5.4C118.6,24.7,116.9,24.1,114.9,24.1"/>
<path class="st0" d="M137.7,47.8c-2.9-3.1-4.3-7.4-4.3-12.8c0-5.4,1.4-9.7,4.3-12.8c2.9-3.2,6.8-4.8,11.6-4.8
	c4.2,0,7.7,1.1,10.4,3.2c2.7,2.2,4.3,5.2,5,9.2h-8.9c-1-3.6-3.1-5.3-6.4-5.3c-2.3,0-4.1,0.9-5.4,2.7c-1.3,1.8-1.9,4.4-1.9,7.8
	c0,3.3,0.6,5.9,1.9,7.8c1.3,1.8,3.1,2.7,5.4,2.7c3.2,0,5.3-1.8,6.4-5.5h8.9c-0.7,3.9-2.4,7-5.1,9.2c-2.7,2.2-6.1,3.3-10.3,3.3
	C144.5,52.6,140.7,51,137.7,47.8"/>
<path class="st0" d="M178.5,24.8V41c0,1.1,0.2,1.9,0.7,2.4c0.5,0.5,1.3,0.7,2.4,0.7h3v7.3h-5.9c-3.3,0-5.7-0.7-7.2-2.2
	c-1.4-1.4-2.2-3.8-2.2-7.2V24.8L165,25v-6.7l4.5,0.1V8h9.1v10.4l6.2-0.2V25L178.5,24.8z"/>
<path class="st0" d="M209.4,51.5c-0.5-2.1-0.7-3.3-0.7-3.3c-2.4,2.9-5.8,4.3-10.2,4.3c-3.5,0-6.3-0.9-8.4-2.8
	c-2.1-1.8-3.1-4.3-3.1-7.3c0-5.4,3.4-8.7,10.1-10l11.6-2.3v-2.4c0-2.4-1.9-3.6-5.6-3.6c-1.8,0-3.2,0.3-4.2,1
	c-0.9,0.7-1.5,1.8-1.7,3.3l-8.3-0.1c0.6-7.1,5.3-10.7,14.1-10.7c9.6,0,14.3,4.1,14.3,12.3v14.7c0,3.1,0.4,5.4,1.3,6.9H209.4z
	 M206.5,43.7c1.4-1.4,2.1-3.2,2.1-5.5v-2.4l-8.5,1.8c-2.9,0.6-4.3,2-4.3,4.2c0,1.2,0.5,2.2,1.4,2.9s2.2,1.1,3.8,1.1
	C203.3,45.7,205.1,45.1,206.5,43.7"/>
<path class="st0" d="M248.7,20.6c1.9,2.1,2.9,5,2.9,8.6v22.3h-9.1V31.3c0-1.8-0.4-3.2-1.3-4.2c-0.8-1-2-1.5-3.6-1.5
	c-1.9,0-3.5,0.7-4.7,2.2c-1.2,1.5-1.8,3.4-1.8,5.9v17.8h-9.1V18.3h8.9l0.1,4.5c2.1-3.6,5.3-5.3,9.6-5.3
	C244.1,17.4,246.8,18.5,248.7,20.6"/>
<path class="st0" d="M255.8,5.7h9.1v8.2h-9.1V5.7z M255.8,18.3h9.1v33.2h-9.1V18.3z"/>
<path class="st0" d="M289.2,51.5c-0.5-2.1-0.7-3.3-0.7-3.3c-2.4,2.9-5.8,4.3-10.2,4.3c-3.5,0-6.3-0.9-8.4-2.8
	c-2.1-1.8-3.2-4.3-3.2-7.3c0-5.4,3.4-8.7,10.1-10l11.6-2.3v-2.4c0-2.4-1.9-3.6-5.6-3.6c-1.8,0-3.2,0.3-4.2,1
	c-0.9,0.7-1.5,1.8-1.7,3.3l-8.3-0.1c0.6-7.1,5.3-10.7,14.2-10.7c9.6,0,14.3,4.1,14.3,12.3v14.7c0,3.1,0.4,5.4,1.3,6.9H289.2z
	 M286.3,43.7c1.4-1.4,2.1-3.2,2.1-5.5v-2.4l-8.5,1.8c-2.9,0.6-4.3,2-4.3,4.2c0,1.2,0.5,2.2,1.4,2.9s2.2,1.1,3.8,1.1
	C283.1,45.7,284.9,45.1,286.3,43.7"/>
</svg>
