<?xml version="1.0" standalone="no"?>
<!DOCTYPE svg PUBLIC "-//W3C//DTD SVG 20010904//EN"
 "http://www.w3.org/TR/2001/REC-SVG-20010904/DTD/svg10.dtd">
<svg version="1.0" xmlns="http://www.w3.org/2000/svg"
 width="700.000000pt" height="700.000000pt" viewBox="0 0 700.000000 700.000000"
 preserveAspectRatio="xMidYMid meet">
<metadata>
Created by potrace 1.11, written by Peter Selinger 2001-2013
</metadata>
<g transform="translate(0.000000,700.000000) scale(0.100000,-0.100000)"
fill="#000000" stroke="none">
<path d="M3367 6945 c-1 -2 -51 -6 -112 -9 -60 -4 -121 -9 -135 -11 -14 -1
-50 -6 -80 -9 -433 -53 -921 -225 -1328 -469 -95 -57 -313 -210 -379 -266
-126 -107 -171 -149 -263 -241 -153 -153 -175 -178 -315 -355 -43 -54 -118
-164 -177 -258 -194 -309 -334 -641 -423 -998 -31 -128 -37 -156 -51 -246 -3
-21 -7 -45 -9 -53 -18 -68 -38 -329 -39 -510 -1 -232 9 -353 44 -575 27 -168
27 -165 66 -313 64 -247 136 -439 253 -672 65 -131 222 -396 261 -442 5 -7 34
-44 62 -83 290 -393 721 -760 1158 -986 134 -70 287 -139 305 -139 8 0 15 -4
15 -9 0 -5 10 -11 23 -14 12 -3 76 -24 142 -47 120 -41 385 -113 460 -124 22
-4 65 -11 95 -16 51 -9 94 -15 180 -25 196 -24 586 -24 760 0 14 2 48 6 75 9
83 10 277 46 330 61 28 8 64 16 80 19 70 12 336 102 476 162 156 65 407 198
521 275 31 22 61 39 67 39 5 0 11 3 13 8 2 4 44 37 94 73 50 37 102 76 115 87
132 110 190 163 289 262 109 109 230 246 296 335 16 22 34 45 39 52 6 7 15 18
20 25 12 16 106 156 120 180 138 232 215 384 288 568 167 423 245 840 241
1291 -1 158 -7 263 -19 359 -3 19 -7 55 -10 80 -9 74 -25 173 -35 210 -5 19
-11 51 -14 70 -11 72 -88 333 -135 457 -235 622 -597 1113 -1131 1536 -8 7
-37 28 -65 47 -27 19 -52 38 -55 41 -9 12 -173 116 -265 168 -194 112 -440
221 -655 291 -98 32 -337 94 -406 104 -21 4 -64 11 -94 16 -30 5 -75 12 -100
15 -25 3 -56 7 -70 10 -82 12 -511 29 -523 20z"/>
</g>
</svg>
